<svg width="64" height="64" viewBox="0 0 64 64" xmlns="http://www.w3.org/2000/svg">
  <defs>
    <linearGradient id="grad1" x1="0%" y1="0%" x2="100%" y2="100%">
      <stop offset="0%" style="stop-color:#3b82f6;stop-opacity:1" />
      <stop offset="100%" style="stop-color:#1e40af;stop-opacity:1" />
    </linearGradient>
    <linearGradient id="grad2" x1="0%" y1="0%" x2="100%" y2="100%">
      <stop offset="0%" style="stop-color:#60a5fa;stop-opacity:1" />
      <stop offset="100%" style="stop-color:#2563eb;stop-opacity:1" />
    </linearGradient>
  </defs>
  
  <!-- Background circle -->
  <circle cx="32" cy="32" r="30" fill="url(#grad1)" stroke="#1e293b" stroke-width="2"/>
  
  <!-- Letter N -->
  <path d="M18 20 L18 44 L22 44 L22 28 L38 44 L42 44 L42 20 L38 20 L38 36 L22 20 Z" fill="white" stroke="#1e293b" stroke-width="1"/>
  
  <!-- Letter G -->
  <path d="M46 32 C46 38.627 40.627 44 34 44 C27.373 44 22 38.627 22 32 C22 25.373 27.373 20 34 20 C37.866 20 41.2 22.134 43 25.5 L39 27.5 C37.8 25.4 36 24 34 24 C29.582 24 26 27.582 26 32 C26 36.418 29.582 40 34 40 C37.5 40 40.5 37.5 41.5 34 L34 34 L34 30 L46 30 Z" fill="url(#grad2)" stroke="white" stroke-width="1"/>
  
  <!-- Decorative elements -->
  <circle cx="48" cy="16" r="3" fill="#60a5fa" opacity="0.8"/>
  <circle cx="16" cy="48" r="2" fill="#93c5fd" opacity="0.6"/>
  <polygon points="52,48 56,52 52,56 48,52" fill="#3b82f6" opacity="0.7"/>
</svg>